HIERARCHY
ROOT Hips
{
    OFFSET 0.0 0.0 0.0
    CHANNELS 6 Xposition Yposition Zposition Zrotation Xrotation Yrotation
    JOINT LeftHipJoint
    {
        OFFSET 0.1 0.0 0.0
        CHANNELS 3 Zrotation Xrotation Yrotation
        JOINT LeftUpLeg
        {
            OFFSET 12.60098823039677 0.0 0.0
            CHANNELS 3 Zrotation Xrotation Yrotation
            JOINT LeftLeg
            {
                OFFSET 0.0 0.0 -43.848094024322
                CHANNELS 3 Zrotation Xrotation Yrotation
                JOINT LeftFoot
                {
                    OFFSET 0.0 0.0 -41.49680576734609
                    CHANNELS 3 Zrotation Xrotation Yrotation
                    End Site
                    {
                        OFFSET 0.0 -0.1 0.0
                    }
                }
            }
        }
    }
    JOINT LowerBack
    {
        OFFSET 0.0 0.0 0.1
        CHANNELS 3 Zrotation Xrotation Yrotation
        JOINT Spine
        {
            OFFSET 0.0 0.0 23.561185064889678
            CHANNELS 3 Zrotation Xrotation Yrotation
            JOINT Spine1
            {
                OFFSET 0.0 0.0 25.034926848338632
                CHANNELS 3 Zrotation Xrotation Yrotation
                JOINT LeftShoulder
                {
                    OFFSET 0.1 0.0 0.0
                    CHANNELS 3 Zrotation Xrotation Yrotation
                    JOINT LeftArm
                    {
                        OFFSET 13.958382899556433 0.0 0.0
                        CHANNELS 3 Zrotation Xrotation Yrotation
                        JOINT LeftForeArm
                        {
                            OFFSET 26.080540266324537 0.0 0.0
                            CHANNELS 3 Zrotation Xrotation Yrotation
                            JOINT LeftHand
                            {
                                OFFSET 21.57853831989236 0.0 0.0
                                CHANNELS 3 Zrotation Xrotation Yrotation
                                End Site
                                {
                                    OFFSET 0.1 0.0 0.0
                                }
                            }
                        }
                    }
                }
                JOINT Neck
                {
                    OFFSET 0.0 0.0 0.1
                    CHANNELS 3 Zrotation Xrotation Yrotation
                    JOINT Neck1
                    {
                        OFFSET 0.0 0.0 9.669944494068993
                        CHANNELS 3 Zrotation Xrotation Yrotation
                        End Site
                        {
                            OFFSET 0.0 0.0 10.844757325542927
                        }
                    }
                }
                JOINT RightShoulder
                {
                    OFFSET -0.1 0.0 0.0
                    CHANNELS 3 Zrotation Xrotation Yrotation
                    JOINT RightArm
                    {
                        OFFSET -13.958382899556433 0.0 0.0
                        CHANNELS 3 Zrotation Xrotation Yrotation
                        JOINT RightForeArm
                        {
                            OFFSET -26.080540266324537 0.0 0.0
                            CHANNELS 3 Zrotation Xrotation Yrotation
                            JOINT RightHand
                            {
                                OFFSET -21.57853831989236 0.0 0.0
                                CHANNELS 3 Zrotation Xrotation Yrotation
                                End Site
                                {
                                    OFFSET -0.1 0.0 0.0
                                }
                            }
                        }
                    }
                }
            }
        }
    }
    JOINT RightHipJoint
    {
        OFFSET -0.1 0.0 0.0
        CHANNELS 3 Zrotation Xrotation Yrotation
        JOINT RightUpLeg
        {
            OFFSET -12.60098823039677 0.0 0.0
            CHANNELS 3 Zrotation Xrotation Yrotation
            JOINT RightLeg
            {
                OFFSET 0.0 0.0 -43.848094024322
                CHANNELS 3 Zrotation Xrotation Yrotation
                JOINT RightFoot
                {
                    OFFSET 0.0 0.0 -41.49680576734609
                    CHANNELS 3 Zrotation Xrotation Yrotation
                    End Site
                    {
                        OFFSET 0.0 -0.1 0.0
                    }
                }
            }
        }
    }
}
MOTION
Frames: 9
Frame Time: 0.016666666666666666
0.0 0.0 92.21006332850415 88.96400492680075 -32.89689641253183 72.81192583547428 0.0 0.0 0.0 4.6111811919365255 -9.22337030620618 14.441081670810997 -6.782223650644282 28.54207182989134 20.142726737076647 0.0 0.0 -7.951386703658792e-16 0.0 0.0 0.0 -9.016909698586668 17.58361872305571 -14.515616734293628 1.9114435398190794 -3.206637592610425e-15 -1.537005351936676e-15 4.4139062980501586e-32 -3.1805546814635168e-15 1.5902773407317584e-15 5.116386372727341 -2.983090500054357 65.06008164202139 -102.72654508631274 1.2822413447916319e-14 -2.1058913978311884e-15 0.0 0.0 -1.5902773407317584e-15 4.4139062980501586e-32 -3.1805546814635168e-15 1.5902773407317584e-15 -41.835910374079575 -2.1807655606137946 5.798859222355275 4.4139062980501586e-32 -3.1805546814635168e-15 1.5902773407317584e-15 -17.97853676967875 -35.80178320381355 -45.89018707840638 58.8411149902687 -9.446616400959019e-15 -3.801276287166184e-15 0.0 0.0 0.0 0.0 0.0 0.0 7.769287700787456 -15.298594505945104 17.51621927377613 -3.9158558602602067 21.491696142918 10.081128740057286 0.0 0.0 -3.975693351829396e-16
0.0 0.0 92.21006332850415 87.32806867818898 -35.95980887539594 71.82069626428894 0.0 0.0 0.0 5.206776828827771 -10.853967588167269 14.227319807282827 -6.3846442149441325 28.482340484888724 21.13774170418085 0.0 0.0 1.5902773407317584e-15 0.0 0.0 0.0 -8.15532041748512 16.69666059402691 -14.866696820918515 0.5608658831445584 -7.951291462471067e-15 3.891773318918465e-17 0.0 0.0 0.0 -0.012539603965538264 -2.398988581746322 66.81028499345993 -103.33645011640387 1.5827921347948558e-15 2.8031532316741277e-15 0.0 0.0 -1.5902773407317584e-15 0.0 0.0 0.0 -38.18136910048902 -3.4185715196669784 5.165347275087798 0.0 0.0 0.0 -16.268525765656804 -32.81592268082743 -46.41813537645961 55.00899356987848 -8.212609094325499e-15 -1.9991983246716174e-15 0.0 0.0 -1.5902773407317584e-15 0.0 0.0 0.0 8.334020396826821 -17.048227075279787 17.604551580879352 -3.515297806142804 21.263986670371274 9.415113810647764 0.0 0.0 -3.975693351829396e-16
0.0 0.0 92.21006332850415 87.35588202121254 -37.351760050132924 71.42528041076567 0.0 0.0 0.0 5.182105986519806 -10.630188861534455 14.790438448970143 -6.005695220768519 27.471767373277384 19.43816448553567 0.0 0.0 7.951386703658792e-16 0.0 0.0 0.0 -8.640201946669077 17.349020165153288 -14.33260619977005 -1.370966091063408 1.5521124840580837e-15 3.199352581235056e-15 0.0 0.0 0.0 -4.108130596435771 -2.394295222706312 66.17577188198773 -100.94062015437756 -7.977802623027913e-16 -3.4653220276482898e-15 2.2069531490250793e-32 1.5902773407317584e-15 -1.5902773407317584e-15 0.0 0.0 0.0 -36.3953436928048 -4.249334074881267 5.638116438476646 0.0 0.0 0.0 -16.76912037541707 -30.649313863049127 -49.97043041750478 52.44975299619395 1.7568405241979889e-15 3.566461691973741e-15 0.0 0.0 1.5902773407317584e-15 0.0 0.0 0.0 8.127317550272485 -16.39078513965174 18.207568019620293 -3.2730633871957084 20.586110261273276 7.171038809614947 0.0 0.0 -9.93923337957349e-17
0.0 0.0 92.21006332850415 86.87478976515256 -38.49797800548084 71.27127314154936 0.0 0.0 0.0 4.918237463216046 -10.423130744430926 14.575339291729897 -5.291960617200876 25.700917700623005 18.78887069938796 -3.310429723537619e-32 -1.5902773407317582e-15 -2.385416011097637e-15 0.0 0.0 0.0 -8.809761854269555 18.2045098788534 -15.332406957729756 -0.5698900180788318 -3.2042416896407376e-15 4.7549554635297726e-15 0.0 0.0 0.0 -6.355871049396012 -3.4833543849011335 65.59202189147949 -100.55711356816587 3.867319302289857e-15 9.21943079542741e-16 0.0 0.0 -1.5902773407317584e-15 0.0 0.0 0.0 -35.35940334941901 -4.961086971376187 4.704769231115596 0.0 0.0 0.0 -16.28474628325203 -30.770505355339285 -50.21955736479431 45.99918555916474 -3.728162734842273e-15 -8.783174560405187e-15 0.0 0.0 3.1805546814635168e-15 0.0 0.0 0.0 8.275522490929553 -17.183581189596097 18.126515597204282 -3.2449495769056793 21.70389593677984 5.807800020449688 1.3793457181406746e-33 -3.9756933518293955e-16 3.9756933518293955e-16
0.0 0.0 92.21006332850415 87.27628318952831 -39.698463961766066 71.54565984212846 0.0 0.0 -7.951386703658792e-16 4.77492647645668 -9.934724366382051 14.297382945657729 -5.374974120714208 24.682471595222268 18.54005959442413 -6.3611093629270335e-15 2.2069531490250793e-32 -3.975693351829396e-16 0.0 0.0 -7.951386703658792e-16 -9.413476485937561 19.00699981138129 -16.236200093437944 -0.6927952458925628 3.2189541820927924e-15 -6.341764295721245e-15 0.0 0.0 0.0 -9.331348074467742 -4.612763614446764 67.4810434702588 -99.96273994023645 -2.7003449744731004e-15 -1.4344855253411186e-14 0.0 0.0 3.1805546814635168e-15 0.0 0.0 0.0 -35.01131538429711 -5.726215800746201 5.356770282981305 0.0 0.0 0.0 -12.143134012690727 -29.227739590404024 -48.16146111512358 39.954561763387396 -1.0324864048194336e-14 -9.78344234009145e-15 0.0 0.0 1.1927080055488188e-15 0.0 0.0 -7.951386703658792e-16 8.195971364173408 -16.721316750130796 18.26043620665284 -3.148247855308592 20.53249957179147 5.305784867225274 0.0 0.0 -1.987846675914698e-16
0.0 0.0 92.21006332850415 84.08302627395396 -41.54476484567434 68.16862947690872 6.3611093629270335e-15 7.951386703658792e-16 -4.4139062980501586e-32 5.662002805383571 -11.459196875320485 15.22914846968278 -4.839987752548316 22.930446452705798 17.3529279065841 2.2069531490250793e-32 -1.5902773407317584e-15 1.5902773407317584e-15 6.3611093629270335e-15 7.951386703658792e-16 -4.4139062980501586e-32 -9.838063260905242 19.356689111953077 -15.35974354864848 0.7516369968825583 2.385364696182099e-15 -1.5646475930565764e-17 0.0 0.0 0.0 -10.761335237606117 -4.319700549693781 67.52142417120488 -96.9836598774728 8.383817540457857e-15 1.0748700041767048e-15 -6.361109362927032e-15 3.180554681463516e-15 -3.180554681463516e-15 0.0 0.0 0.0 -31.299290980330333 -6.938197999213294 5.45643807842952 0.0 0.0 0.0 -13.806717365612768 -31.9206658371793 -50.6733814594803 35.02910266218643 7.0233934154176215e-15 1.1187427502182334e-15 -3.1805546814635168e-15 -3.310429723537619e-32 1.1927080055488188e-15 6.3611093629270335e-15 7.951386703658792e-16 -4.4139062980501586e-32 9.161008944883346 -18.133652974633492 20.16194900215797 -2.647404393601923 19.988442957344947 4.226301785663431 0.0 0.0 3.9756933518293955e-16
0.0 0.0 92.21006332850415 81.87630504556265 -44.554462448054004 66.46063487390566 0.0 0.0 0.0 6.903196954492731 -14.533483424578911 15.473538951007859 -3.8433159939760295 20.289160972621318 13.150221073838352 0.0 0.0 7.951386703658792e-16 0.0 0.0 0.0 -10.17532638712538 20.865851643934764 -15.972676858088484 2.423234087147622 3.179843562648359e-15 -6.72532442584752e-17 0.0 0.0 0.0 -11.414866046829118 -7.183907441630778 67.14836006575644 -99.36141574544042 1.4517130266547023e-15 2.939507250396187e-15 0.0 0.0 1.5902773407317584e-15 0.0 0.0 0.0 -31.282143855864042 -7.753152265135323 7.115033104332552 0.0 0.0 0.0 -5.288664444815243 -29.365253575462653 -45.22905876436207 30.285945291663683 1.4539904725488288e-15 5.372703365735627e-15 0.0 0.0 5.683999088943589e-16 0.0 0.0 0.0 7.935389755270858 -16.593299201594224 19.878284259293384 -1.9280664310678537 17.357967520418146 3.86324417617629 0.0 0.0 1.987846675914698e-16
0.0 0.0 92.21006332850415 78.9861501278629 -47.31432078142353 63.89201934139285 0.0 0.0 0.0 7.398996552904352 -15.436750853809748 15.466738836295796 -3.7805655012403205 19.523018281288245 12.323976833299325 0.0 0.0 -7.951386703658792e-16 0.0 0.0 0.0 -10.216035621639358 20.829697661625367 -15.848500809926922 3.575066223338564 2.384255199245985e-15 -7.440894347760964e-17 0.0 0.0 0.0 -12.815227585876244 -7.31014919886173 68.5231048233536 -98.61752758362736 -1.7357266447342583e-15 -6.896875627677871e-15 -6.361109362927035e-15 0.0 0.0 0.0 0.0 0.0 -29.376971610525 -9.420392764415933 7.009005775500397 0.0 0.0 0.0 -4.612647789518064 -29.188780224188708 -45.48481941749557 28.492259464651063 -9.687620553151149e-15 -1.2306959982112402e-14 0.0 0.0 -2.236327510404035e-15 0.0 0.0 0.0 8.572384234658891 -17.737498092165445 20.244906386545455 -1.8629918899261366 16.956987368865644 3.4299376782445097 -6.896728590703373e-34 3.9756933518293955e-16 1.9878466759146977e-16
0.0 0.0 92.21006332850415 77.6852112764146 -48.790122983858815 61.684935130009094 0.0 0.0 7.951386703658792e-16 7.558760220055367 -15.832563931710784 16.377100926092208 -3.5224420042779845 20.05535374722922 11.059722959018288 0.0 0.0 -1.1927080055488186e-15 0.0 0.0 7.951386703658792e-16 -10.20571803063888 20.914292266834494 -14.652783503619084 3.8213600095202787 -7.840921489634987e-15 3.4438973251654276e-15 0.0 0.0 0.0 -15.188517612944379 -8.168210733135052 67.68062091281907 -97.04346048901877 7.148681255694134e-15 -6.3197871040488994e-15 0.0 0.0 -1.5902773407317584e-15 0.0 0.0 0.0 -27.831890106972402 -10.672165562499485 6.73777209054092 0.0 0.0 0.0 -3.7515125920329453 -30.282409978902756 -45.277049082228494 26.197151403824442 6.556003417848727e-15 1.0730113102229574e-16 0.0 0.0 1.6399735076296259e-15 0.0 0.0 7.951386703658792e-16 8.98834986291641 -18.628942760527778 21.833936463612375 -1.4327834549665044 17.570096443942262 2.4599649988799475 0.0 0.0 0.0
